<?xml version="1.0" encoding="UTF-8"?>
<!DOCTYPE svg PUBLIC "-//W3C//DTD SVG 1.1//EN" "http://www.w3.org/Graphics/SVG/1.1/DTD/svg11.dtd">
<svg version="1.1" xmlns="http://www.w3.org/2000/svg" xmlns:xlink="http://www.w3.org/1999/xlink" x="0" y="0" width="3300" height="2200" viewBox="0, 0, 3300, 2200">
  <g id="Background">
    <rect x="0" y="0" width="3300" height="2200" fill="#FFFFFF"/>
  </g>
  <g id="Notes">
    <path d="M0,0 L3300,0 L3300,2200 L0,2200 z" fill="#FFFFFF" id="artboard"/>
    <path d="M263,292 L3036,292" fill-opacity="0" stroke="#000000" stroke-width="0.5"/>
    <text transform="matrix(1, 0, 0, 1, 331.912, 317.5)">
      <tspan x="-68.912" y="4.5" font-family="Helvetica" font-size="13" fill="#000000">Weight/Scale Variations</tspan>
    </text>
    <text transform="matrix(1, 0, 0, 1, 559.711, 317.5)">
      <tspan x="-25.648" y="4.5" font-family="Helvetica" font-size="13" fill="#000000">Ultralight</tspan>
    </text>
    <text transform="matrix(1, 0, 0, 1, 856.422, 317.5)">
      <tspan x="-12.645" y="4.5" font-family="Helvetica" font-size="13" fill="#000000">Thin</tspan>
    </text>
    <text transform="matrix(1, 0, 0, 1, 1153.13, 317.5)">
      <tspan x="-14.095" y="4.5" font-family="Helvetica" font-size="13" fill="#000000">Light</tspan>
    </text>
    <text transform="matrix(1, 0, 0, 1, 1449.84, 317.5)">
      <tspan x="-22.763" y="4.5" font-family="Helvetica" font-size="13" fill="#000000">Regular</tspan>
    </text>
    <text transform="matrix(1, 0, 0, 1, 1746.56, 317.5)">
      <tspan x="-23.118" y="4.5" font-family="Helvetica" font-size="13" fill="#000000">Medium</tspan>
    </text>
    <text transform="matrix(1, 0, 0, 1, 2043.27, 317.5)">
      <tspan x="-27.098" y="4.5" font-family="Helvetica" font-size="13" fill="#000000">Semibold</tspan>
    </text>
    <text transform="matrix(1, 0, 0, 1, 2339.98, 317.5)">
      <tspan x="-13.01" y="4.5" font-family="Helvetica" font-size="13" fill="#000000">Bold</tspan>
    </text>
    <text transform="matrix(1, 0, 0, 1, 2636.69, 317.5)">
      <tspan x="-18.424" y="4.5" font-family="Helvetica" font-size="13" fill="#000000">Heavy</tspan>
    </text>
    <text transform="matrix(1, 0, 0, 1, 2933.4, 317.5)">
      <tspan x="-15.895" y="4.5" font-family="Helvetica" font-size="13" fill="#000000">Black</tspan>
    </text>
    <path d="M263,1903 L3036,1903" fill-opacity="0" stroke="#000000" stroke-width="0.5"/>
    <path d="M272.248,1933.83 Q273.869,1933.83 275.295,1933.215 Q276.721,1932.6 277.81,1931.506 Q278.898,1930.412 279.519,1928.986 Q280.139,1927.561 280.139,1925.949 Q280.139,1924.338 279.519,1922.912 Q278.898,1921.486 277.805,1920.393 Q276.711,1919.299 275.285,1918.684 Q273.859,1918.068 272.238,1918.068 Q270.627,1918.068 269.201,1918.684 Q267.775,1919.299 266.691,1920.393 Q265.607,1921.486 264.987,1922.912 Q264.367,1924.338 264.367,1925.949 Q264.367,1927.561 264.987,1928.986 Q265.607,1930.412 266.696,1931.506 Q267.785,1932.6 269.211,1933.215 Q270.637,1933.83 272.248,1933.83 z M272.248,1932.346 Q270.92,1932.346 269.763,1931.853 Q268.605,1931.359 267.731,1930.48 Q266.857,1929.602 266.364,1928.439 Q265.871,1927.277 265.871,1925.949 Q265.871,1924.621 266.359,1923.459 Q266.848,1922.297 267.722,1921.418 Q268.596,1920.539 269.753,1920.046 Q270.91,1919.553 272.238,1919.553 Q273.576,1919.553 274.733,1920.046 Q275.891,1920.539 276.769,1921.418 Q277.648,1922.297 278.146,1923.459 Q278.644,1924.621 278.644,1925.949 Q278.644,1927.277 278.151,1928.439 Q277.658,1929.602 276.784,1930.48 Q275.91,1931.359 274.748,1931.853 Q273.586,1932.346 272.248,1932.346 z M268.84,1925.959 Q268.84,1926.281 269.045,1926.481 Q269.25,1926.682 269.592,1926.682 L271.506,1926.682 L271.506,1928.605 Q271.506,1928.938 271.706,1929.143 Q271.906,1929.348 272.229,1929.348 Q272.561,1929.348 272.766,1929.143 Q272.971,1928.938 272.971,1928.605 L272.971,1926.682 L274.894,1926.682 Q275.227,1926.682 275.432,1926.481 Q275.637,1926.281 275.637,1925.959 Q275.637,1925.627 275.432,1925.422 Q275.227,1925.217 274.894,1925.217 L272.971,1925.217 L272.971,1923.303 Q272.971,1922.961 272.766,1922.756 Q272.561,1922.551 272.229,1922.551 Q271.906,1922.551 271.706,1922.756 Q271.506,1922.961 271.506,1923.303 L271.506,1925.217 L269.592,1925.217 Q269.25,1925.217 269.045,1925.422 Q268.84,1925.627 268.84,1925.959 z" fill="#000000"/>
    <path d="M293.576,1935.91 Q295.617,1935.91 297.419,1935.129 Q299.22,1934.348 300.597,1932.971 Q301.974,1931.594 302.756,1929.792 Q303.537,1927.99 303.537,1925.949 Q303.537,1923.908 302.756,1922.106 Q301.974,1920.305 300.597,1918.928 Q299.22,1917.551 297.414,1916.77 Q295.607,1915.988 293.566,1915.988 Q291.525,1915.988 289.723,1916.77 Q287.922,1917.551 286.55,1918.928 Q285.178,1920.305 284.396,1922.106 Q283.615,1923.908 283.615,1925.949 Q283.615,1927.99 284.396,1929.792 Q285.178,1931.594 286.554,1932.971 Q287.931,1934.348 289.733,1935.129 Q291.535,1935.91 293.576,1935.91 z M293.576,1934.25 Q291.847,1934.25 290.344,1933.605 Q288.84,1932.961 287.702,1931.823 Q286.564,1930.686 285.925,1929.182 Q285.285,1927.678 285.285,1925.949 Q285.285,1924.221 285.925,1922.717 Q286.564,1921.213 287.697,1920.07 Q288.83,1918.928 290.334,1918.288 Q291.838,1917.648 293.566,1917.648 Q295.295,1917.648 296.799,1918.288 Q298.302,1918.928 299.445,1920.07 Q300.588,1921.213 301.232,1922.717 Q301.877,1924.221 301.877,1925.949 Q301.877,1927.678 301.237,1929.182 Q300.597,1930.686 299.46,1931.823 Q298.322,1932.961 296.813,1933.605 Q295.304,1934.25 293.576,1934.25 z M289.26,1925.959 Q289.26,1926.311 289.494,1926.535 Q289.728,1926.76 290.099,1926.76 L292.746,1926.76 L292.746,1929.426 Q292.746,1929.787 292.97,1930.017 Q293.195,1930.246 293.547,1930.246 Q293.918,1930.246 294.152,1930.017 Q294.386,1929.787 294.386,1929.426 L294.386,1926.76 L297.043,1926.76 Q297.404,1926.76 297.638,1926.535 Q297.873,1926.311 297.873,1925.959 Q297.873,1925.588 297.638,1925.358 Q297.404,1925.129 297.043,1925.129 L294.386,1925.129 L294.386,1922.482 Q294.386,1922.102 294.152,1921.872 Q293.918,1921.643 293.547,1921.643 Q293.195,1921.643 292.97,1921.872 Q292.746,1922.102 292.746,1922.482 L292.746,1925.129 L290.099,1925.129 Q289.719,1925.129 289.489,1925.358 Q289.26,1925.588 289.26,1925.959 z" fill="#000000"/>
    <path d="M320.617,1938.664 Q322.707,1938.664 324.606,1938.015 Q326.505,1937.365 328.097,1936.193 Q329.689,1935.021 330.866,1933.43 Q332.043,1931.838 332.692,1929.934 Q333.341,1928.029 333.341,1925.949 Q333.341,1923.859 332.692,1921.96 Q332.043,1920.061 330.866,1918.469 Q329.689,1916.877 328.097,1915.7 Q326.505,1914.523 324.601,1913.874 Q322.697,1913.225 320.607,1913.225 Q318.517,1913.225 316.618,1913.874 Q314.718,1914.523 313.131,1915.7 Q311.544,1916.877 310.368,1918.469 Q309.191,1920.061 308.546,1921.96 Q307.902,1923.859 307.902,1925.949 Q307.902,1928.029 308.551,1929.934 Q309.201,1931.838 310.373,1933.43 Q311.544,1935.021 313.136,1936.193 Q314.728,1937.365 316.627,1938.015 Q318.527,1938.664 320.617,1938.664 z M320.617,1936.848 Q318.81,1936.848 317.174,1936.296 Q315.539,1935.744 314.181,1934.748 Q312.824,1933.752 311.823,1932.39 Q310.822,1931.027 310.275,1929.392 Q309.728,1927.756 309.728,1925.949 Q309.728,1924.133 310.275,1922.497 Q310.822,1920.861 311.818,1919.499 Q312.814,1918.137 314.171,1917.141 Q315.529,1916.145 317.165,1915.598 Q318.8,1915.051 320.607,1915.051 Q322.423,1915.051 324.059,1915.598 Q325.695,1916.145 327.057,1917.141 Q328.419,1918.137 329.415,1919.499 Q330.412,1920.861 330.963,1922.497 Q331.515,1924.133 331.515,1925.949 Q331.525,1927.756 330.978,1929.392 Q330.431,1931.027 329.43,1932.39 Q328.429,1933.752 327.067,1934.748 Q325.705,1935.744 324.069,1936.296 Q322.433,1936.848 320.617,1936.848 z M315.099,1925.959 Q315.099,1926.34 315.358,1926.589 Q315.617,1926.838 316.017,1926.838 L319.708,1926.838 L319.708,1930.539 Q319.708,1930.939 319.957,1931.193 Q320.207,1931.447 320.587,1931.447 Q320.998,1931.447 321.251,1931.193 Q321.505,1930.939 321.505,1930.539 L321.505,1926.838 L325.207,1926.838 Q325.607,1926.838 325.861,1926.589 Q326.115,1926.34 326.115,1925.959 Q326.115,1925.549 325.861,1925.295 Q325.607,1925.041 325.207,1925.041 L321.505,1925.041 L321.505,1921.35 Q321.505,1920.939 321.251,1920.686 Q320.998,1920.432 320.587,1920.432 Q320.207,1920.432 319.957,1920.69 Q319.708,1920.949 319.708,1921.35 L319.708,1925.041 L316.017,1925.041 Q315.607,1925.041 315.353,1925.295 Q315.099,1925.549 315.099,1925.959 z" fill="#000000"/>
    <text transform="matrix(1, 0, 0, 1, 313.964, 1948.5)">
      <tspan x="-50.964" y="4.5" font-family="Helvetica" font-size="13" fill="#000000">Design Variations</tspan>
    </text>
    <text transform="matrix(1, 0, 0, 1, 442.717, 1966.5)">
      <tspan x="-179.717" y="4.5" font-family="Helvetica" font-size="13" fill="#000000">Symbols are supported in up to nine weights and three scales.</tspan>
    </text>
    <text transform="matrix(1, 0, 0, 1, 440.158, 1984.5)">
      <tspan x="-177.158" y="4.5" font-family="Helvetica" font-size="13" fill="#000000">For optimal layout with text and other symbols, vertically align</tspan>
    </text>
    <text transform="matrix(1, 0, 0, 1, 352.015, 2002.5)">
      <tspan x="-89.015" y="4.5" font-family="Helvetica" font-size="13" fill="#000000">symbols with the adjacent text.</tspan>
    </text>
    <path d="M776,1919 L776,1933" fill-opacity="0" stroke="#00AEEF" stroke-width="0.5"/>
    <path d="M779.311,1933.156 Q779.701,1933.156 779.916,1932.99 Q780.131,1932.824 780.268,1932.414 L781.527,1928.967 L787.289,1928.967 L788.549,1932.414 Q788.685,1932.824 788.9,1932.99 Q789.115,1933.156 789.496,1933.156 Q789.887,1933.156 790.116,1932.941 Q790.346,1932.727 790.346,1932.355 Q790.346,1932.131 790.238,1931.828 L785.658,1919.631 Q785.482,1919.182 785.18,1918.957 Q784.877,1918.732 784.408,1918.732 Q783.5,1918.732 783.178,1919.621 L778.598,1931.838 Q778.49,1932.141 778.49,1932.365 Q778.49,1932.736 778.71,1932.946 Q778.93,1933.156 779.311,1933.156 z M782.006,1927.482 L784.379,1920.91 L784.428,1920.91 L786.801,1927.482 z" fill="#000000"/>
    <path d="M793.197,1919 L793.197,1933" fill-opacity="0" stroke="#00AEEF" stroke-width="0.5"/>
    <text transform="matrix(1, 0, 0, 1, 799.618, 1948.5)">
      <tspan x="-23.618" y="4.5" font-family="Helvetica" font-size="13" fill="#000000">Margins</tspan>
    </text>
    <text transform="matrix(1, 0, 0, 1, 974.871, 1966.5)">
      <tspan x="-198.871" y="4.5" font-family="Helvetica" font-size="13" fill="#000000">Leading and trailing margins on the left and right side of each symbol</tspan>
    </text>
    <text transform="matrix(1, 0, 0, 1, 973.785, 1984.5)">
      <tspan x="-197.785" y="4.5" font-family="Helvetica" font-size="13" fill="#000000">can be adjusted by modifying the x-location of the margin guidelines.</tspan>
    </text>
    <text transform="matrix(1, 0, 0, 1, 944.507, 2002.5)">
      <tspan x="-168.507" y="4.5" font-family="Helvetica" font-size="13" fill="#000000">Modifications are automatically applied proportionally to all</tspan>
    </text>
    <text transform="matrix(1, 0, 0, 1, 833.226, 2020.5)">
      <tspan x="-57.226" y="4.5" font-family="Helvetica" font-size="13" fill="#000000">scales and weights.</tspan>
    </text>
    <path d="M1291.842,1934.865 L1293.541,1936.574 Q1294.186,1937.229 1294.903,1937.18 Q1295.621,1937.131 1296.314,1936.359 L1307.008,1924.572 L1306.041,1923.596 L1295.426,1935.275 Q1295.162,1935.578 1294.894,1935.617 Q1294.625,1935.656 1294.273,1935.305 L1293.102,1934.143 Q1292.75,1933.791 1292.794,1933.522 Q1292.838,1933.254 1293.141,1932.98 L1304.615,1922.18 L1303.639,1921.213 L1292.047,1932.102 Q1291.305,1932.785 1291.251,1933.498 Q1291.197,1934.211 1291.842,1934.865 z M1298.258,1916.672 Q1297.945,1916.975 1297.906,1917.365 Q1297.867,1917.756 1298.043,1918.049 Q1298.219,1918.322 1298.556,1918.459 Q1298.893,1918.596 1299.381,1918.479 Q1300.475,1918.225 1301.598,1918.269 Q1302.721,1918.312 1303.795,1919.016 L1303.209,1920.471 Q1302.955,1921.096 1303.067,1921.56 Q1303.18,1922.023 1303.58,1922.434 L1305.875,1924.748 Q1306.236,1925.119 1306.578,1925.178 Q1306.92,1925.236 1307.34,1925.158 L1308.404,1924.963 L1309.068,1925.637 L1309.029,1926.193 Q1309,1926.564 1309.122,1926.877 Q1309.244,1927.189 1309.605,1927.551 L1310.367,1928.293 Q1310.729,1928.654 1311.153,1928.669 Q1311.578,1928.684 1311.93,1928.332 L1314.84,1925.412 Q1315.191,1925.061 1315.182,1924.646 Q1315.172,1924.23 1314.81,1923.869 L1314.039,1923.107 Q1313.688,1922.746 1313.38,1922.614 Q1313.072,1922.482 1312.711,1922.512 L1312.135,1922.56 L1311.49,1921.926 L1311.734,1920.803 Q1311.832,1920.383 1311.695,1920.017 Q1311.559,1919.65 1311.119,1919.211 L1308.922,1917.023 Q1307.672,1915.783 1306.261,1915.163 Q1304.85,1914.543 1303.419,1914.519 Q1301.988,1914.494 1300.665,1915.041 Q1299.342,1915.588 1298.258,1916.672 z M1299.752,1917.043 Q1300.66,1916.379 1301.7,1916.096 Q1302.74,1915.812 1303.805,1915.915 Q1304.869,1916.018 1305.87,1916.486 Q1306.871,1916.955 1307.701,1917.795 L1310.133,1920.207 Q1310.309,1920.383 1310.353,1920.549 Q1310.396,1920.715 1310.338,1920.969 L1310.016,1922.453 L1311.52,1923.938 L1312.506,1923.879 Q1312.691,1923.869 1312.789,1923.903 Q1312.887,1923.938 1313.033,1924.084 L1313.609,1924.66 L1311.168,1927.102 L1310.592,1926.525 Q1310.445,1926.379 1310.406,1926.281 Q1310.367,1926.184 1310.377,1925.988 L1310.445,1925.012 L1308.951,1923.527 L1307.428,1923.781 Q1307.184,1923.83 1307.042,1923.796 Q1306.9,1923.762 1306.715,1923.586 L1304.713,1921.584 Q1304.518,1921.408 1304.493,1921.247 Q1304.469,1921.086 1304.586,1920.812 L1305.465,1918.723 Q1304.293,1917.629 1302.828,1917.209 Q1301.363,1916.789 1299.84,1917.238 Q1299.723,1917.268 1299.688,1917.194 Q1299.654,1917.121 1299.752,1917.043 z" fill="#000000"/>
    <text transform="matrix(1, 0, 0, 1, 1316.96, 1948.5)">
      <tspan x="-27.96" y="4.5" font-family="Helvetica" font-size="13" fill="#000000">Exporting</tspan>
    </text>
    <text transform="matrix(1, 0, 0, 1, 1454.634, 1966.5)">
      <tspan x="-165.634" y="4.5" font-family="Helvetica" font-size="13" fill="#000000">Symbols should be outlined when exporting to ensure the</tspan>
    </text>
    <text transform="matrix(1, 0, 0, 1, 1423.908, 1984.5)">
      <tspan x="-134.908" y="4.5" font-family="Helvetica" font-size="13" fill="#000000">design is preserved when submitting to Xcode.</tspan>
    </text>
    <text transform="matrix(1, 0, 0, 1, 2993.707, 1928.5)" id="template-version">
      <tspan x="-41.293" y="4.5" font-family="Helvetica" font-size="13" fill="#000000">Template v.3.0</tspan>
    </text>
    <text transform="matrix(1, 0, 0, 1, 2950.229, 1946.5)">
      <tspan x="-84.771" y="4.5" font-family="Helvetica" font-size="13" fill="#000000">Requires Xcode 13 or greater</tspan>
    </text>
    <text transform="matrix(1, 0, 0, 1, 2914.818, 1964.5)" id="descriptive-name">
      <tspan x="-120.182" y="4.5" font-family="Helvetica" font-size="13" fill="#000000">Generated from iphone.and.arrow.forward</tspan>
    </text>
    <text transform="matrix(1, 0, 0, 1, 2973.706, 1982.5)">
      <tspan x="-61.294" y="4.5" font-family="Helvetica" font-size="13" fill="#000000">Typeset at 100 points</tspan>
    </text>
    <text transform="matrix(1, 0, 0, 1, 279.753, 721.5)">
      <tspan x="-16.753" y="4.5" font-family="Helvetica" font-size="13" fill="#000000">Small</tspan>
    </text>
    <text transform="matrix(1, 0, 0, 1, 286.618, 1151.5)">
      <tspan x="-23.618" y="4.5" font-family="Helvetica" font-size="13" fill="#000000">Medium</tspan>
    </text>
    <text transform="matrix(1, 0, 0, 1, 280.125, 1581.5)">
      <tspan x="-17.125" y="4.5" font-family="Helvetica" font-size="13" fill="#000000">Large</tspan>
    </text>
  </g>
  <g id="Guides">
    <path d="M339.977,696 L342.662,696 L368.346,628.861 L369.029,628.861 L369.029,625.541 L367.125,625.541 z M350.67,671.537 L385.973,671.537 L385.24,669.291 L351.451,669.291 z M394.127,696 L396.764,696 L369.615,625.541 L368.443,625.541 L368.443,628.861 z" fill="#27AAE1"/>
    <path d="M263,696 L3036,696" fill-opacity="0" stroke="#27AAE1" stroke-width="0.5" id="Baseline-S"/>
    <path d="M263,625.541 L3036,625.541" fill-opacity="0" stroke="#27AAE1" stroke-width="0.5" id="Capline-S"/>
    <path d="M339.977,1126 L342.662,1126 L368.346,1058.861 L369.029,1058.861 L369.029,1055.541 L367.125,1055.541 z M350.67,1101.537 L385.973,1101.537 L385.24,1099.291 L351.451,1099.291 z M394.127,1126 L396.764,1126 L369.615,1055.541 L368.443,1055.541 L368.443,1058.861 z" fill="#27AAE1"/>
    <path d="M263,1126 L3036,1126" fill-opacity="0" stroke="#27AAE1" stroke-width="0.5" id="Baseline-M"/>
    <path d="M263,1055.54 L3036,1055.54" fill-opacity="0" stroke="#27AAE1" stroke-width="0.5" id="Capline-M"/>
    <path d="M339.977,1556 L342.662,1556 L368.346,1488.861 L369.029,1488.861 L369.029,1485.541 L367.125,1485.541 z M350.67,1531.537 L385.973,1531.537 L385.24,1529.291 L351.451,1529.291 z M394.127,1556 L396.764,1556 L369.615,1485.541 L368.443,1485.541 L368.443,1488.861 z" fill="#27AAE1"/>
    <path d="M263,1556 L3036,1556" fill-opacity="0" stroke="#27AAE1" stroke-width="0.5" id="Baseline-L"/>
    <path d="M263,1485.54 L3036,1485.54" fill-opacity="0" stroke="#27AAE1" stroke-width="0.5" id="Capline-L"/>
    <path d="M1399.77,1030.79 L1399.77,1150.12" fill-opacity="0" stroke="#00AEEF" stroke-width="0.5" id="left-margin-Regular-M"/>
    <path d="M1499.92,1030.79 L1499.92,1150.12" fill-opacity="0" stroke="#00AEEF" stroke-width="0.5" id="right-margin-Regular-M"/>
  </g>
  <g id="Symbols">
    <g id="Semibold-L">
      <path d="M2060.198,1458.667 C2067.557,1458.667 2073.576,1464.519 2073.576,1471.807 L2073.576,1549.167 C2073.576,1556.455 2067.557,1562.306 2060.198,1562.306 L2026.342,1562.306 C2018.984,1562.306 2012.964,1556.455 2012.964,1549.167 L2012.964,1471.807 C2012.964,1464.519 2018.984,1458.667 2026.342,1458.667 L2060.198,1458.667 z M2060.198,1468.333 L2026.342,1468.333 C2024.262,1468.333 2022.63,1469.919 2022.63,1471.807 L2022.63,1549.167 C2022.63,1551.054 2024.262,1552.641 2026.342,1552.641 L2060.198,1552.641 C2062.278,1552.641 2063.91,1551.054 2063.91,1549.167 L2063.91,1471.807 C2063.91,1469.919 2062.278,1468.333 2060.198,1468.333 z" fill="#FF0000"/>
      <path d="M2043.27,1486.342 C2040.601,1486.342 2038.437,1484.178 2038.437,1481.509 C2038.437,1478.84 2040.601,1476.676 2043.27,1476.676 C2045.939,1476.676 2048.103,1478.84 2048.103,1481.509 C2048.103,1484.178 2045.939,1486.342 2043.27,1486.342 z" fill="#FF0000"/>
      <path d="M2043.27,1500.891 C2052.821,1500.891 2060.563,1508.633 2060.563,1518.184 C2060.563,1527.734 2052.821,1535.477 2043.27,1535.477 C2033.72,1535.477 2025.977,1527.734 2025.977,1518.184 C2025.977,1508.633 2033.72,1500.891 2043.27,1500.891 z M2043.27,1510.557 C2039.058,1510.557 2035.643,1513.972 2035.643,1518.184 C2035.643,1522.396 2039.058,1525.811 2043.27,1525.811 C2047.482,1525.811 2050.897,1522.396 2050.897,1518.184 C2050.897,1513.972 2047.482,1510.557 2043.27,1510.557 z" fill="#FF0000"/>
      <path d="M2032.808,1564.748 L2032.808,1584.031 L2053.732,1584.031 L2053.732,1564.748 L2063.398,1564.748 L2063.398,1588.864 C2063.398,1591.533 2061.234,1593.697 2058.565,1593.697 L2027.975,1593.697 C2025.306,1593.697 2023.142,1591.533 2023.142,1588.864 L2023.142,1564.748 L2032.808,1564.748 z" fill="#FF0000"/>
    </g>
    <g id="Regular-L">
      <path d="M1437.779,1567.556 L1437.779,1588.604 L1461.901,1588.604 L1461.901,1567.556 L1470.288,1567.556 L1470.288,1592.798 C1470.289,1595.114 1468.411,1596.992 1466.095,1596.992 L1433.585,1596.991 C1431.27,1596.992 1429.392,1595.114 1429.392,1592.798 L1429.392,1567.556 L1437.779,1567.556 z" fill="#FF0000"/>
      <path d="M1467.831,1455.373 C1475.136,1455.374 1481.105,1461.177 1481.105,1468.395 L1481.105,1550.609 C1481.105,1557.828 1475.136,1563.631 1467.831,1563.631 L1431.849,1563.63 C1424.545,1563.631 1418.576,1557.828 1418.575,1550.609 L1418.575,1468.394 C1418.576,1461.177 1424.545,1455.374 1431.85,1455.374 L1467.831,1455.373 z M1467.831,1463.76 L1431.849,1463.76 C1429.125,1463.761 1426.963,1465.863 1426.963,1468.395 L1426.962,1550.609 C1426.963,1553.142 1429.125,1555.244 1431.85,1555.244 L1467.831,1555.243 C1470.556,1555.244 1472.718,1553.142 1472.718,1550.609 L1472.717,1468.394 C1472.718,1465.863 1470.556,1463.761 1467.831,1463.761 L1467.831,1463.76 z M1449.84,1500.246 L1453.354,1500.601 C1461.928,1503.107 1466.397,1508.961 1467.276,1517.682 C1467.276,1527.312 1459.47,1535.118 1449.84,1535.118 C1440.211,1535.118 1432.405,1527.312 1432.405,1517.682 C1433.047,1507.155 1439.651,1501.274 1449.84,1500.247 L1449.84,1500.246 z M1449.84,1508.633 L1449.84,1508.633 C1444.843,1508.634 1440.792,1512.685 1440.792,1517.682 C1440.792,1522.679 1444.843,1526.73 1449.84,1526.73 C1454.838,1526.73 1458.889,1522.679 1458.888,1517.682 C1458.889,1512.685 1454.838,1508.634 1449.84,1508.634 L1449.84,1508.633 z M1449.84,1472.322 C1453.315,1472.323 1456.131,1475.139 1456.131,1478.613 C1456.131,1482.087 1453.315,1484.904 1449.84,1484.904 C1446.366,1484.904 1443.55,1482.087 1443.55,1478.613 C1443.55,1475.139 1446.366,1472.323 1449.84,1472.323 L1449.84,1472.322 z" fill="#FF0000" id="Shape"/>
    </g>
    <g id="Semibold-M">
      <path d="M2058.056,1034.963 C2064.483,1034.963 2069.741,1040.074 2069.741,1046.44 L2069.741,1114.011 C2069.741,1120.376 2064.483,1125.488 2058.056,1125.487 L2028.484,1125.487 C2022.057,1125.488 2016.799,1120.376 2016.799,1114.011 L2016.799,1046.44 C2016.799,1040.074 2022.057,1034.963 2028.484,1034.963 L2058.056,1034.963 z M2058.056,1043.406 L2028.484,1043.406 C2026.667,1043.406 2025.242,1044.791 2025.242,1046.44 L2025.242,1114.011 C2025.242,1115.659 2026.667,1117.045 2028.484,1117.045 L2058.056,1117.045 C2059.873,1117.045 2061.298,1115.659 2061.298,1114.011 L2061.298,1046.44 C2061.298,1044.791 2059.873,1043.406 2058.056,1043.406 z" fill="#FF0000"/>
      <path d="M2043.27,1071.844 C2051.612,1071.844 2058.375,1078.606 2058.375,1086.948 C2058.375,1095.29 2051.612,1102.053 2043.27,1102.053 C2034.928,1102.053 2028.166,1095.29 2028.165,1086.948 C2028.166,1078.606 2034.928,1071.844 2043.27,1071.844 z M2043.27,1080.286 C2039.591,1080.286 2036.608,1083.269 2036.608,1086.948 C2036.608,1090.627 2039.591,1093.61 2043.27,1093.61 C2046.949,1093.61 2049.932,1090.627 2049.932,1086.948 C2049.932,1083.269 2046.949,1080.286 2043.27,1080.286 z" fill="#FF0000"/>
      <path d="M2043.27,1059.136 C2040.939,1059.136 2039.049,1057.246 2039.049,1054.914 C2039.049,1052.583 2040.939,1050.693 2043.27,1050.693 C2045.601,1050.693 2047.491,1052.583 2047.491,1054.914 C2047.491,1057.246 2045.601,1059.136 2043.27,1059.136 z" fill="#FF0000"/>
      <path d="M2034.132,1127.62 L2034.132,1144.463 L2052.408,1144.463 L2052.408,1127.62 L2060.851,1127.62 L2060.851,1148.684 C2060.851,1151.016 2058.961,1152.906 2056.629,1152.906 L2029.911,1152.906 C2027.579,1152.906 2025.689,1151.016 2025.689,1148.684 L2025.689,1127.62 L2034.132,1127.62 z" fill="#FF0000"/>
    </g>
    <g id="Regular-M">
      <path d="M1464.115,1037.749 C1469.912,1037.75 1474.648,1042.354 1474.648,1048.082 L1474.648,1113.316 C1474.648,1119.045 1469.912,1123.649 1464.115,1123.649 L1435.565,1123.648 C1429.769,1123.649 1425.033,1119.045 1425.032,1113.317 L1425.032,1048.081 C1425.033,1042.354 1429.769,1037.75 1435.565,1037.75 L1464.115,1037.749 z M1464.115,1044.404 L1435.565,1044.404 C1433.403,1044.405 1431.688,1046.073 1431.688,1048.082 L1431.687,1113.316 C1431.688,1115.326 1433.403,1116.994 1435.565,1116.994 L1464.115,1116.993 C1466.278,1116.994 1467.993,1115.326 1467.993,1113.317 L1467.993,1048.081 C1467.993,1046.073 1466.278,1044.405 1464.115,1044.405 L1464.115,1044.404 z M1449.84,1073.355 L1452.628,1073.636 C1459.432,1075.625 1462.977,1080.27 1463.675,1087.19 C1463.675,1094.831 1457.481,1101.025 1449.84,1101.025 C1442.2,1101.025 1436.006,1094.831 1436.006,1087.19 C1436.515,1078.837 1441.756,1074.171 1449.84,1073.355 L1449.84,1073.355 z M1449.84,1080.01 L1449.84,1080.01 C1445.875,1080.011 1442.661,1083.225 1442.661,1087.19 C1442.661,1091.155 1445.875,1094.37 1449.84,1094.37 C1453.806,1094.37 1457.02,1091.155 1457.02,1087.19 C1457.02,1083.225 1453.806,1080.011 1449.84,1080.01 L1449.84,1080.01 z M1449.84,1051.198 C1452.597,1051.198 1454.832,1053.433 1454.832,1056.19 C1454.832,1058.946 1452.597,1061.181 1449.84,1061.181 C1447.084,1061.181 1444.849,1058.946 1444.849,1056.19 C1444.849,1053.433 1447.084,1051.198 1449.84,1051.198 L1449.84,1051.198 z" fill="#FF0000" id="Shape"/>
      <path d="M1440.27,1126.763 L1440.27,1143.464 L1459.41,1143.464 L1459.41,1126.763 L1466.065,1126.763 L1466.065,1146.792 C1466.066,1148.63 1464.576,1150.12 1462.738,1150.12 L1436.942,1150.12 C1435.105,1150.12 1433.615,1148.63 1433.615,1146.792 L1433.615,1126.763 L1440.27,1126.763 z" fill="#FF0000"/>
    </g>
    <g id="Semibold-S">
      <path d="M2056.028,617.507 C2061.573,617.507 2066.109,621.917 2066.109,627.41 L2066.109,685.71 C2066.109,691.202 2061.573,695.612 2056.028,695.612 L2030.512,695.612 C2024.967,695.612 2020.431,691.202 2020.431,685.71 L2020.431,627.41 C2020.431,621.917 2024.967,617.507 2030.512,617.507 L2056.028,617.507 z M2056.028,624.792 L2030.512,624.792 C2028.945,624.792 2027.715,625.987 2027.715,627.41 L2027.715,685.71 C2027.715,687.132 2028.945,688.328 2030.512,688.328 L2056.028,688.328 C2057.595,688.328 2058.825,687.132 2058.824,685.71 L2058.824,627.41 C2058.825,625.987 2057.595,624.792 2056.028,624.792 z" fill="#FF0000"/>
      <path d="M2043.27,649.328 C2050.468,649.328 2056.302,655.163 2056.302,662.36 C2056.302,669.558 2050.468,675.393 2043.27,675.392 C2036.073,675.393 2030.238,669.558 2030.238,662.36 C2030.238,655.163 2036.073,649.328 2043.27,649.328 z M2043.27,656.612 C2040.096,656.612 2037.522,659.186 2037.522,662.36 C2037.522,665.535 2040.096,668.108 2043.27,668.108 C2046.444,668.108 2049.018,665.535 2049.018,662.36 C2049.018,659.186 2046.444,656.612 2043.27,656.612 z" fill="#FF0000"/>
      <path d="M2043.27,638.364 C2041.259,638.364 2039.628,636.733 2039.628,634.721 C2039.628,632.71 2041.259,631.079 2043.27,631.079 C2045.282,631.079 2046.912,632.71 2046.912,634.721 C2046.912,636.733 2045.282,638.364 2043.27,638.364 z" fill="#FF0000"/>
      <path d="M2035.386,697.452 L2035.386,711.984 L2051.154,711.984 L2051.154,697.452 L2058.439,697.452 L2058.439,715.626 C2058.439,717.638 2056.808,719.269 2054.796,719.269 L2031.744,719.269 C2029.732,719.269 2028.101,717.638 2028.101,715.626 L2028.101,697.452 L2035.386,697.452 z" fill="#FF0000"/>
    </g>
    <g id="Regular-S">
      <path d="M1441.6,696.179 L1441.6,710.559 L1458.08,710.559 L1458.08,696.179 L1463.81,696.179 L1463.81,713.424 C1463.811,715.006 1462.528,716.289 1460.945,716.289 L1438.735,716.289 C1437.153,716.289 1435.87,715.006 1435.87,713.424 L1435.87,696.179 L1441.6,696.179 z" fill="#FF0000"/>
      <path d="M1462.131,619.535 C1467.122,619.536 1471.2,623.501 1471.2,628.432 L1471.2,684.6 C1471.2,689.533 1467.122,693.497 1462.131,693.497 L1437.549,693.496 C1432.558,693.497 1428.48,689.533 1428.48,684.601 L1428.48,628.432 C1428.48,623.501 1432.558,619.536 1437.549,619.536 L1462.131,619.535 z M1462.131,625.265 L1437.549,625.265 C1435.687,625.266 1434.21,626.702 1434.21,628.432 L1434.21,684.6 C1434.21,686.331 1435.687,687.767 1437.549,687.767 L1462.131,687.766 C1463.993,687.767 1465.47,686.331 1465.47,684.601 L1465.47,628.432 C1465.47,626.702 1463.993,625.266 1462.131,625.266 L1462.131,625.265 z M1449.84,650.193 L1452.24,650.435 C1458.099,652.148 1461.151,656.146 1461.752,662.105 C1461.752,668.684 1456.419,674.017 1449.84,674.017 C1443.262,674.017 1437.929,668.684 1437.928,662.105 C1438.367,654.913 1442.879,650.895 1449.84,650.193 L1449.84,650.193 z M1449.84,655.923 L1449.84,655.923 C1446.426,655.924 1443.659,658.691 1443.659,662.105 C1443.659,665.519 1446.426,668.287 1449.84,668.287 C1453.254,668.287 1456.022,665.519 1456.022,662.105 C1456.022,658.691 1453.254,655.924 1449.84,655.923 L1449.84,655.923 z M1449.84,631.115 C1452.214,631.116 1454.138,633.04 1454.138,635.413 C1454.138,637.787 1452.214,639.711 1449.84,639.711 C1447.467,639.711 1445.543,637.787 1445.543,635.413 C1445.543,633.04 1447.467,631.116 1449.84,631.116 L1449.84,631.115 z" fill="#FF0000" id="Shape"/>
    </g>
  </g>
</svg>
