<?xml version="1.0" encoding="UTF-8"?>
<!DOCTYPE svg PUBLIC "-//W3C//DTD SVG 1.1//EN" "http://www.w3.org/Graphics/SVG/1.1/DTD/svg11.dtd">
<svg version="1.1" xmlns="http://www.w3.org/2000/svg" xmlns:xlink="http://www.w3.org/1999/xlink" x="0" y="0" width="3300" height="2200" viewBox="0, 0, 3300, 2200">
  <g id="Background">
    <rect x="0" y="0" width="3300" height="2200" fill="#FFFFFF"/>
  </g>
  <g id="Notes">
    <path d="M0,0 L3300,0 L3300,2200 L0,2200 z" fill="#FFFFFF" id="artboard"/>
    <path d="M263,292 L3036,292" fill-opacity="0" stroke="#000000" stroke-width="0.5"/>
    <text transform="matrix(1, 0, 0, 1, 331.912, 317.5)">
      <tspan x="-68.912" y="4.5" font-family="Helvetica" font-size="13" fill="#000000">Weight/Scale Variations</tspan>
    </text>
    <text transform="matrix(1, 0, 0, 1, 559.711, 317.5)">
      <tspan x="-25.648" y="4.5" font-family="Helvetica" font-size="13" fill="#000000">Ultralight</tspan>
    </text>
    <text transform="matrix(1, 0, 0, 1, 856.422, 317.5)">
      <tspan x="-12.645" y="4.5" font-family="Helvetica" font-size="13" fill="#000000">Thin</tspan>
    </text>
    <text transform="matrix(1, 0, 0, 1, 1153.13, 317.5)">
      <tspan x="-14.095" y="4.5" font-family="Helvetica" font-size="13" fill="#000000">Light</tspan>
    </text>
    <text transform="matrix(1, 0, 0, 1, 1449.84, 317.5)">
      <tspan x="-22.763" y="4.5" font-family="Helvetica" font-size="13" fill="#000000">Regular</tspan>
    </text>
    <text transform="matrix(1, 0, 0, 1, 1746.56, 317.5)">
      <tspan x="-23.118" y="4.5" font-family="Helvetica" font-size="13" fill="#000000">Medium</tspan>
    </text>
    <text transform="matrix(1, 0, 0, 1, 2043.27, 317.5)">
      <tspan x="-27.098" y="4.5" font-family="Helvetica" font-size="13" fill="#000000">Semibold</tspan>
    </text>
    <text transform="matrix(1, 0, 0, 1, 2339.98, 317.5)">
      <tspan x="-13.01" y="4.5" font-family="Helvetica" font-size="13" fill="#000000">Bold</tspan>
    </text>
    <text transform="matrix(1, 0, 0, 1, 2636.69, 317.5)">
      <tspan x="-18.424" y="4.5" font-family="Helvetica" font-size="13" fill="#000000">Heavy</tspan>
    </text>
    <text transform="matrix(1, 0, 0, 1, 2933.4, 317.5)">
      <tspan x="-15.895" y="4.5" font-family="Helvetica" font-size="13" fill="#000000">Black</tspan>
    </text>
    <path d="M263,1903 L3036,1903" fill-opacity="0" stroke="#000000" stroke-width="0.5"/>
    <path d="M272.248,1933.83 Q273.869,1933.83 275.295,1933.215 Q276.721,1932.6 277.81,1931.506 Q278.898,1930.412 279.519,1928.986 Q280.139,1927.561 280.139,1925.949 Q280.139,1924.338 279.519,1922.912 Q278.898,1921.486 277.805,1920.393 Q276.711,1919.299 275.285,1918.684 Q273.859,1918.068 272.238,1918.068 Q270.627,1918.068 269.201,1918.684 Q267.775,1919.299 266.691,1920.393 Q265.607,1921.486 264.987,1922.912 Q264.367,1924.338 264.367,1925.949 Q264.367,1927.561 264.987,1928.986 Q265.607,1930.412 266.696,1931.506 Q267.785,1932.6 269.211,1933.215 Q270.637,1933.83 272.248,1933.83 z M272.248,1932.346 Q270.92,1932.346 269.763,1931.853 Q268.605,1931.359 267.731,1930.48 Q266.857,1929.602 266.364,1928.439 Q265.871,1927.277 265.871,1925.949 Q265.871,1924.621 266.359,1923.459 Q266.848,1922.297 267.722,1921.418 Q268.596,1920.539 269.753,1920.046 Q270.91,1919.553 272.238,1919.553 Q273.576,1919.553 274.733,1920.046 Q275.891,1920.539 276.769,1921.418 Q277.648,1922.297 278.146,1923.459 Q278.644,1924.621 278.644,1925.949 Q278.644,1927.277 278.151,1928.439 Q277.658,1929.602 276.784,1930.48 Q275.91,1931.359 274.748,1931.853 Q273.586,1932.346 272.248,1932.346 z M268.84,1925.959 Q268.84,1926.281 269.045,1926.481 Q269.25,1926.682 269.592,1926.682 L271.506,1926.682 L271.506,1928.605 Q271.506,1928.938 271.706,1929.143 Q271.906,1929.348 272.229,1929.348 Q272.561,1929.348 272.766,1929.143 Q272.971,1928.938 272.971,1928.605 L272.971,1926.682 L274.894,1926.682 Q275.227,1926.682 275.432,1926.481 Q275.637,1926.281 275.637,1925.959 Q275.637,1925.627 275.432,1925.422 Q275.227,1925.217 274.894,1925.217 L272.971,1925.217 L272.971,1923.303 Q272.971,1922.961 272.766,1922.756 Q272.561,1922.551 272.229,1922.551 Q271.906,1922.551 271.706,1922.756 Q271.506,1922.961 271.506,1923.303 L271.506,1925.217 L269.592,1925.217 Q269.25,1925.217 269.045,1925.422 Q268.84,1925.627 268.84,1925.959 z" fill="#000000"/>
    <path d="M293.576,1935.91 Q295.617,1935.91 297.419,1935.129 Q299.22,1934.348 300.597,1932.971 Q301.974,1931.594 302.756,1929.792 Q303.537,1927.99 303.537,1925.949 Q303.537,1923.908 302.756,1922.106 Q301.974,1920.305 300.597,1918.928 Q299.22,1917.551 297.414,1916.77 Q295.607,1915.988 293.566,1915.988 Q291.525,1915.988 289.723,1916.77 Q287.922,1917.551 286.55,1918.928 Q285.178,1920.305 284.396,1922.106 Q283.615,1923.908 283.615,1925.949 Q283.615,1927.99 284.396,1929.792 Q285.178,1931.594 286.554,1932.971 Q287.931,1934.348 289.733,1935.129 Q291.535,1935.91 293.576,1935.91 z M293.576,1934.25 Q291.847,1934.25 290.344,1933.605 Q288.84,1932.961 287.702,1931.823 Q286.564,1930.686 285.925,1929.182 Q285.285,1927.678 285.285,1925.949 Q285.285,1924.221 285.925,1922.717 Q286.564,1921.213 287.697,1920.07 Q288.83,1918.928 290.334,1918.288 Q291.838,1917.648 293.566,1917.648 Q295.295,1917.648 296.799,1918.288 Q298.302,1918.928 299.445,1920.07 Q300.588,1921.213 301.232,1922.717 Q301.877,1924.221 301.877,1925.949 Q301.877,1927.678 301.237,1929.182 Q300.597,1930.686 299.46,1931.823 Q298.322,1932.961 296.813,1933.605 Q295.304,1934.25 293.576,1934.25 z M289.26,1925.959 Q289.26,1926.311 289.494,1926.535 Q289.728,1926.76 290.099,1926.76 L292.746,1926.76 L292.746,1929.426 Q292.746,1929.787 292.97,1930.017 Q293.195,1930.246 293.547,1930.246 Q293.918,1930.246 294.152,1930.017 Q294.386,1929.787 294.386,1929.426 L294.386,1926.76 L297.043,1926.76 Q297.404,1926.76 297.638,1926.535 Q297.873,1926.311 297.873,1925.959 Q297.873,1925.588 297.638,1925.358 Q297.404,1925.129 297.043,1925.129 L294.386,1925.129 L294.386,1922.482 Q294.386,1922.102 294.152,1921.872 Q293.918,1921.643 293.547,1921.643 Q293.195,1921.643 292.97,1921.872 Q292.746,1922.102 292.746,1922.482 L292.746,1925.129 L290.099,1925.129 Q289.719,1925.129 289.489,1925.358 Q289.26,1925.588 289.26,1925.959 z" fill="#000000"/>
    <path d="M320.617,1938.664 Q322.707,1938.664 324.606,1938.015 Q326.505,1937.365 328.097,1936.193 Q329.689,1935.021 330.866,1933.43 Q332.043,1931.838 332.692,1929.934 Q333.341,1928.029 333.341,1925.949 Q333.341,1923.859 332.692,1921.96 Q332.043,1920.061 330.866,1918.469 Q329.689,1916.877 328.097,1915.7 Q326.505,1914.523 324.601,1913.874 Q322.697,1913.225 320.607,1913.225 Q318.517,1913.225 316.618,1913.874 Q314.718,1914.523 313.131,1915.7 Q311.544,1916.877 310.368,1918.469 Q309.191,1920.061 308.546,1921.96 Q307.902,1923.859 307.902,1925.949 Q307.902,1928.029 308.551,1929.934 Q309.201,1931.838 310.373,1933.43 Q311.544,1935.021 313.136,1936.193 Q314.728,1937.365 316.627,1938.015 Q318.527,1938.664 320.617,1938.664 z M320.617,1936.848 Q318.81,1936.848 317.174,1936.296 Q315.539,1935.744 314.181,1934.748 Q312.824,1933.752 311.823,1932.39 Q310.822,1931.027 310.275,1929.392 Q309.728,1927.756 309.728,1925.949 Q309.728,1924.133 310.275,1922.497 Q310.822,1920.861 311.818,1919.499 Q312.814,1918.137 314.171,1917.141 Q315.529,1916.145 317.165,1915.598 Q318.8,1915.051 320.607,1915.051 Q322.423,1915.051 324.059,1915.598 Q325.695,1916.145 327.057,1917.141 Q328.419,1918.137 329.415,1919.499 Q330.412,1920.861 330.963,1922.497 Q331.515,1924.133 331.515,1925.949 Q331.525,1927.756 330.978,1929.392 Q330.431,1931.027 329.43,1932.39 Q328.429,1933.752 327.067,1934.748 Q325.705,1935.744 324.069,1936.296 Q322.433,1936.848 320.617,1936.848 z M315.099,1925.959 Q315.099,1926.34 315.358,1926.589 Q315.617,1926.838 316.017,1926.838 L319.708,1926.838 L319.708,1930.539 Q319.708,1930.939 319.957,1931.193 Q320.207,1931.447 320.587,1931.447 Q320.998,1931.447 321.251,1931.193 Q321.505,1930.939 321.505,1930.539 L321.505,1926.838 L325.207,1926.838 Q325.607,1926.838 325.861,1926.589 Q326.115,1926.34 326.115,1925.959 Q326.115,1925.549 325.861,1925.295 Q325.607,1925.041 325.207,1925.041 L321.505,1925.041 L321.505,1921.35 Q321.505,1920.939 321.251,1920.686 Q320.998,1920.432 320.587,1920.432 Q320.207,1920.432 319.957,1920.69 Q319.708,1920.949 319.708,1921.35 L319.708,1925.041 L316.017,1925.041 Q315.607,1925.041 315.353,1925.295 Q315.099,1925.549 315.099,1925.959 z" fill="#000000"/>
    <text transform="matrix(1, 0, 0, 1, 313.964, 1948.5)">
      <tspan x="-50.964" y="4.5" font-family="Helvetica" font-size="13" fill="#000000">Design Variations</tspan>
    </text>
    <text transform="matrix(1, 0, 0, 1, 442.717, 1966.5)">
      <tspan x="-179.717" y="4.5" font-family="Helvetica" font-size="13" fill="#000000">Symbols are supported in up to nine weights and three scales.</tspan>
    </text>
    <text transform="matrix(1, 0, 0, 1, 440.158, 1984.5)">
      <tspan x="-177.158" y="4.5" font-family="Helvetica" font-size="13" fill="#000000">For optimal layout with text and other symbols, vertically align</tspan>
    </text>
    <text transform="matrix(1, 0, 0, 1, 352.015, 2002.5)">
      <tspan x="-89.015" y="4.5" font-family="Helvetica" font-size="13" fill="#000000">symbols with the adjacent text.</tspan>
    </text>
    <path d="M776,1919 L776,1933" fill-opacity="0" stroke="#00AEEF" stroke-width="0.5"/>
    <path d="M779.311,1933.156 Q779.701,1933.156 779.916,1932.99 Q780.131,1932.824 780.268,1932.414 L781.527,1928.967 L787.289,1928.967 L788.549,1932.414 Q788.685,1932.824 788.9,1932.99 Q789.115,1933.156 789.496,1933.156 Q789.887,1933.156 790.116,1932.941 Q790.346,1932.727 790.346,1932.355 Q790.346,1932.131 790.238,1931.828 L785.658,1919.631 Q785.482,1919.182 785.18,1918.957 Q784.877,1918.732 784.408,1918.732 Q783.5,1918.732 783.178,1919.621 L778.598,1931.838 Q778.49,1932.141 778.49,1932.365 Q778.49,1932.736 778.71,1932.946 Q778.93,1933.156 779.311,1933.156 z M782.006,1927.482 L784.379,1920.91 L784.428,1920.91 L786.801,1927.482 z" fill="#000000"/>
    <path d="M793.197,1919 L793.197,1933" fill-opacity="0" stroke="#00AEEF" stroke-width="0.5"/>
    <text transform="matrix(1, 0, 0, 1, 799.618, 1948.5)">
      <tspan x="-23.618" y="4.5" font-family="Helvetica" font-size="13" fill="#000000">Margins</tspan>
    </text>
    <text transform="matrix(1, 0, 0, 1, 974.871, 1966.5)">
      <tspan x="-198.871" y="4.5" font-family="Helvetica" font-size="13" fill="#000000">Leading and trailing margins on the left and right side of each symbol</tspan>
    </text>
    <text transform="matrix(1, 0, 0, 1, 973.785, 1984.5)">
      <tspan x="-197.785" y="4.5" font-family="Helvetica" font-size="13" fill="#000000">can be adjusted by modifying the x-location of the margin guidelines.</tspan>
    </text>
    <text transform="matrix(1, 0, 0, 1, 944.507, 2002.5)">
      <tspan x="-168.507" y="4.5" font-family="Helvetica" font-size="13" fill="#000000">Modifications are automatically applied proportionally to all</tspan>
    </text>
    <text transform="matrix(1, 0, 0, 1, 833.226, 2020.5)">
      <tspan x="-57.226" y="4.5" font-family="Helvetica" font-size="13" fill="#000000">scales and weights.</tspan>
    </text>
    <path d="M1291.842,1934.865 L1293.541,1936.574 Q1294.186,1937.229 1294.903,1937.18 Q1295.621,1937.131 1296.314,1936.359 L1307.008,1924.572 L1306.041,1923.596 L1295.426,1935.275 Q1295.162,1935.578 1294.894,1935.617 Q1294.625,1935.656 1294.273,1935.305 L1293.102,1934.143 Q1292.75,1933.791 1292.794,1933.522 Q1292.838,1933.254 1293.141,1932.98 L1304.615,1922.18 L1303.639,1921.213 L1292.047,1932.102 Q1291.305,1932.785 1291.251,1933.498 Q1291.197,1934.211 1291.842,1934.865 z M1298.258,1916.672 Q1297.945,1916.975 1297.906,1917.365 Q1297.867,1917.756 1298.043,1918.049 Q1298.219,1918.322 1298.556,1918.459 Q1298.893,1918.596 1299.381,1918.479 Q1300.475,1918.225 1301.598,1918.269 Q1302.721,1918.312 1303.795,1919.016 L1303.209,1920.471 Q1302.955,1921.096 1303.067,1921.56 Q1303.18,1922.023 1303.58,1922.434 L1305.875,1924.748 Q1306.236,1925.119 1306.578,1925.178 Q1306.92,1925.236 1307.34,1925.158 L1308.404,1924.963 L1309.068,1925.637 L1309.029,1926.193 Q1309,1926.564 1309.122,1926.877 Q1309.244,1927.189 1309.605,1927.551 L1310.367,1928.293 Q1310.729,1928.654 1311.153,1928.669 Q1311.578,1928.684 1311.93,1928.332 L1314.84,1925.412 Q1315.191,1925.061 1315.182,1924.646 Q1315.172,1924.23 1314.81,1923.869 L1314.039,1923.107 Q1313.688,1922.746 1313.38,1922.614 Q1313.072,1922.482 1312.711,1922.512 L1312.135,1922.56 L1311.49,1921.926 L1311.734,1920.803 Q1311.832,1920.383 1311.695,1920.017 Q1311.559,1919.65 1311.119,1919.211 L1308.922,1917.023 Q1307.672,1915.783 1306.261,1915.163 Q1304.85,1914.543 1303.419,1914.519 Q1301.988,1914.494 1300.665,1915.041 Q1299.342,1915.588 1298.258,1916.672 z M1299.752,1917.043 Q1300.66,1916.379 1301.7,1916.096 Q1302.74,1915.812 1303.805,1915.915 Q1304.869,1916.018 1305.87,1916.486 Q1306.871,1916.955 1307.701,1917.795 L1310.133,1920.207 Q1310.309,1920.383 1310.353,1920.549 Q1310.396,1920.715 1310.338,1920.969 L1310.016,1922.453 L1311.52,1923.938 L1312.506,1923.879 Q1312.691,1923.869 1312.789,1923.903 Q1312.887,1923.938 1313.033,1924.084 L1313.609,1924.66 L1311.168,1927.102 L1310.592,1926.525 Q1310.445,1926.379 1310.406,1926.281 Q1310.367,1926.184 1310.377,1925.988 L1310.445,1925.012 L1308.951,1923.527 L1307.428,1923.781 Q1307.184,1923.83 1307.042,1923.796 Q1306.9,1923.762 1306.715,1923.586 L1304.713,1921.584 Q1304.518,1921.408 1304.493,1921.247 Q1304.469,1921.086 1304.586,1920.812 L1305.465,1918.723 Q1304.293,1917.629 1302.828,1917.209 Q1301.363,1916.789 1299.84,1917.238 Q1299.723,1917.268 1299.688,1917.194 Q1299.654,1917.121 1299.752,1917.043 z" fill="#000000"/>
    <text transform="matrix(1, 0, 0, 1, 1316.96, 1948.5)">
      <tspan x="-27.96" y="4.5" font-family="Helvetica" font-size="13" fill="#000000">Exporting</tspan>
    </text>
    <text transform="matrix(1, 0, 0, 1, 1454.634, 1966.5)">
      <tspan x="-165.634" y="4.5" font-family="Helvetica" font-size="13" fill="#000000">Symbols should be outlined when exporting to ensure the</tspan>
    </text>
    <text transform="matrix(1, 0, 0, 1, 1423.908, 1984.5)">
      <tspan x="-134.908" y="4.5" font-family="Helvetica" font-size="13" fill="#000000">design is preserved when submitting to Xcode.</tspan>
    </text>
    <text transform="matrix(1, 0, 0, 1, 2993.707, 1928.5)" id="template-version">
      <tspan x="-41.293" y="4.5" font-family="Helvetica" font-size="13" fill="#000000">Template v.3.0</tspan>
    </text>
    <text transform="matrix(1, 0, 0, 1, 2950.229, 1946.5)">
      <tspan x="-84.771" y="4.5" font-family="Helvetica" font-size="13" fill="#000000">Requires Xcode 13 or greater</tspan>
    </text>
    <text transform="matrix(1, 0, 0, 1, 2945.916, 1964.5)" id="descriptive-name">
      <tspan x="-89.084" y="4.5" font-family="Helvetica" font-size="13" fill="#000000">Generated from minus.circle.fill</tspan>
    </text>
    <text transform="matrix(1, 0, 0, 1, 2973.706, 1982.5)">
      <tspan x="-61.294" y="4.5" font-family="Helvetica" font-size="13" fill="#000000">Typeset at 100 points</tspan>
    </text>
    <text transform="matrix(1, 0, 0, 1, 279.753, 721.5)">
      <tspan x="-16.753" y="4.5" font-family="Helvetica" font-size="13" fill="#000000">Small</tspan>
    </text>
    <text transform="matrix(1, 0, 0, 1, 286.618, 1151.5)">
      <tspan x="-23.618" y="4.5" font-family="Helvetica" font-size="13" fill="#000000">Medium</tspan>
    </text>
    <text transform="matrix(1, 0, 0, 1, 280.125, 1581.5)">
      <tspan x="-17.125" y="4.5" font-family="Helvetica" font-size="13" fill="#000000">Large</tspan>
    </text>
  </g>
  <g id="Guides">
    <path d="M339.977,696 L342.662,696 L368.346,628.861 L369.029,628.861 L369.029,625.541 L367.125,625.541 z M350.67,671.537 L385.973,671.537 L385.24,669.291 L351.451,669.291 z M394.127,696 L396.764,696 L369.615,625.541 L368.443,625.541 L368.443,628.861 z" fill="#27AAE1"/>
    <path d="M263,696 L3036,696" fill-opacity="0" stroke="#27AAE1" stroke-width="0.5" id="Baseline-S"/>
    <path d="M263,625.541 L3036,625.541" fill-opacity="0" stroke="#27AAE1" stroke-width="0.5" id="Capline-S"/>
    <path d="M339.977,1126 L342.662,1126 L368.346,1058.861 L369.029,1058.861 L369.029,1055.541 L367.125,1055.541 z M350.67,1101.537 L385.973,1101.537 L385.24,1099.291 L351.451,1099.291 z M394.127,1126 L396.764,1126 L369.615,1055.541 L368.443,1055.541 L368.443,1058.861 z" fill="#27AAE1"/>
    <path d="M263,1126 L3036,1126" fill-opacity="0" stroke="#27AAE1" stroke-width="0.5" id="Baseline-M"/>
    <path d="M263,1055.54 L3036,1055.54" fill-opacity="0" stroke="#27AAE1" stroke-width="0.5" id="Capline-M"/>
    <path d="M339.977,1556 L342.662,1556 L368.346,1488.861 L369.029,1488.861 L369.029,1485.541 L367.125,1485.541 z M350.67,1531.537 L385.973,1531.537 L385.24,1529.291 L351.451,1529.291 z M394.127,1556 L396.764,1556 L369.615,1485.541 L368.443,1485.541 L368.443,1488.861 z" fill="#27AAE1"/>
    <path d="M263,1556 L3036,1556" fill-opacity="0" stroke="#27AAE1" stroke-width="0.5" id="Baseline-L"/>
    <path d="M263,1485.54 L3036,1485.54" fill-opacity="0" stroke="#27AAE1" stroke-width="0.5" id="Capline-L"/>
    <path d="M1391.3,1030.79 L1391.3,1150.12" fill-opacity="0" stroke="#00AEEF" stroke-width="0.5" id="left-margin-Regular-M"/>
    <path d="M1508.39,1030.79 L1508.39,1150.12" fill-opacity="0" stroke="#00AEEF" stroke-width="0.5" id="right-margin-Regular-M"/>
  </g>
  <g id="Symbols">
    <g id="Semibold-L">
      <path d="M2043.24,1585.785 Q2053.933,1585.785 2063.65,1582.465 Q2073.366,1579.145 2081.521,1573.163 Q2089.675,1567.182 2095.657,1559.027 Q2101.638,1550.873 2104.958,1541.156 Q2108.279,1531.439 2108.279,1520.746 Q2108.279,1510.053 2104.958,1500.336 Q2101.638,1490.619 2095.632,1482.489 Q2089.626,1474.359 2081.496,1468.354 Q2073.366,1462.348 2063.625,1459.027 Q2053.884,1455.707 2043.191,1455.707 Q2032.497,1455.707 2022.781,1459.027 Q2013.064,1462.348 2004.958,1468.354 Q1996.853,1474.359 1990.847,1482.489 Q1984.841,1490.619 1981.545,1500.336 Q1978.249,1510.053 1978.249,1520.746 Q1978.249,1531.439 1981.57,1541.156 Q1984.89,1550.873 1990.871,1559.027 Q1996.853,1567.182 2004.983,1573.163 Q2013.113,1579.145 2022.829,1582.465 Q2032.546,1585.785 2043.24,1585.785 z" fill="#FF3B30"/>
      <path d="M2053.872,1546.956 L2053.872,1564.22 L2032.668,1564.22 L2032.668,1546.956" fill-opacity="0" stroke="#FFFFFF" stroke-width="6" stroke-linejoin="round" id="Shape"/>
      <g id="Shape">
        <path d="M2043.27,1489.778 C2042.078,1489.778 2041.111,1488.811 2041.111,1487.618 C2041.111,1486.426 2042.078,1485.459 2043.27,1485.459 C2044.463,1485.459 2045.43,1486.426 2045.43,1487.618 C2045.43,1488.811 2044.463,1489.778 2043.27,1489.778 z" fill="#FFFFFF"/>
        <path d="M2043.27,1489.778 C2042.078,1489.778 2041.111,1488.811 2041.111,1487.618 C2041.111,1486.426 2042.078,1485.459 2043.27,1485.459 C2044.463,1485.459 2045.43,1486.426 2045.43,1487.618 C2045.43,1488.811 2044.463,1489.778 2043.27,1489.778 z" fill-opacity="0" stroke="#FFFFFF" stroke-width="6"/>
      </g>
      <path d="M2043.27,1523.863 C2038.5,1523.863 2034.634,1519.996 2034.634,1515.226 C2034.634,1510.456 2038.5,1506.589 2043.27,1506.589 C2048.041,1506.589 2051.907,1510.456 2051.907,1515.226 C2051.907,1519.996 2048.041,1523.863 2043.27,1523.863 z" fill-opacity="0" stroke="#FFFFFF" stroke-width="6" id="Shape"/>
      <path d="M2031.536,1477.321 L2055.005,1477.321 C2058.276,1477.321 2060.927,1479.899 2060.927,1483.079 L2060.927,1536.703 C2060.927,1539.883 2058.276,1542.461 2055.005,1542.461 L2031.536,1542.461 C2028.265,1542.461 2025.613,1539.883 2025.613,1536.703 L2025.613,1483.079 C2025.613,1479.899 2028.265,1477.321 2031.536,1477.321 z" fill-opacity="0" stroke="#FFFFFF" stroke-width="6" id="Shape"/>
    </g>
    <g id="Regular-L">
      <path d="M1449.815,1584.369 Q1460.265,1584.369 1469.762,1581.122 Q1479.259,1577.875 1487.218,1572.016 Q1495.177,1566.156 1501.061,1558.197 Q1506.944,1550.238 1510.191,1540.717 Q1513.439,1531.195 1513.439,1520.795 Q1513.439,1510.346 1510.191,1500.849 Q1506.944,1491.352 1501.061,1483.393 Q1495.177,1475.434 1487.218,1469.55 Q1479.259,1463.666 1469.737,1460.419 Q1460.216,1457.172 1449.766,1457.172 Q1439.317,1457.172 1429.82,1460.419 Q1420.323,1463.666 1412.389,1469.55 Q1404.454,1475.434 1398.57,1483.393 Q1392.686,1491.352 1389.464,1500.849 Q1386.241,1510.346 1386.241,1520.795 Q1386.241,1531.195 1389.488,1540.717 Q1392.735,1550.238 1398.595,1558.197 Q1404.454,1566.156 1412.413,1572.016 Q1420.372,1577.875 1429.869,1581.122 Q1439.366,1584.369 1449.815,1584.369 z" fill="#FF3B30"/>
      <path d="M1460.442,1545.811 L1460.442,1564.269 L1439.238,1564.269 L1439.238,1545.811" fill-opacity="0" stroke="#FFFFFF" stroke-width="5" stroke-linejoin="round" id="Shape"/>
      <g id="Shape">
        <path d="M1449.84,1489.827 C1448.647,1489.827 1447.681,1488.86 1447.681,1487.667 C1447.681,1486.475 1448.647,1485.508 1449.84,1485.508 C1451.032,1485.508 1451.999,1486.475 1451.999,1487.667 C1451.999,1488.86 1451.032,1489.827 1449.84,1489.827 z" fill="#FFFFFF"/>
        <path d="M1449.84,1489.827 C1448.647,1489.827 1447.681,1488.86 1447.681,1487.667 C1447.681,1486.475 1448.647,1485.508 1449.84,1485.508 C1451.032,1485.508 1451.999,1486.475 1451.999,1487.667 C1451.999,1488.86 1451.032,1489.827 1449.84,1489.827 z" fill-opacity="0" stroke="#FFFFFF" stroke-width="5"/>
      </g>
      <path d="M1449.84,1523.912 C1445.07,1523.912 1441.203,1520.045 1441.203,1515.275 C1441.203,1510.505 1445.07,1506.638 1449.84,1506.638 C1454.61,1506.638 1458.477,1510.505 1458.477,1515.275 C1458.477,1520.045 1454.61,1523.912 1449.84,1523.912 z" fill-opacity="0" stroke="#FFFFFF" stroke-width="5" id="Shape"/>
      <path d="M1438.106,1477.37 L1461.574,1477.37 C1464.845,1477.37 1467.497,1479.948 1467.497,1483.128 L1467.497,1536.752 C1467.497,1539.932 1464.845,1542.51 1461.574,1542.51 L1438.106,1542.51 C1434.835,1542.51 1432.183,1539.932 1432.183,1536.752 L1432.183,1483.128 C1432.183,1479.948 1434.835,1477.37 1438.106,1477.37 z" fill-opacity="0" stroke="#FFFFFF" stroke-width="5" id="Shape"/>
    </g>
    <g id="Semibold-M">
      <path d="M2043.268,1141.674 Q2053.717,1141.674 2062.946,1137.694 Q2072.174,1133.715 2079.206,1126.684 Q2086.237,1119.652 2090.216,1110.448 Q2094.196,1101.244 2094.196,1090.746 Q2094.196,1080.297 2090.216,1071.093 Q2086.237,1061.889 2079.206,1054.857 Q2072.174,1047.826 2062.946,1043.822 Q2053.717,1039.818 2043.219,1039.818 Q2032.77,1039.818 2023.566,1043.822 Q2014.362,1047.826 2007.331,1054.857 Q2000.299,1061.889 1996.32,1071.093 Q1992.34,1080.297 1992.34,1090.746 Q1992.34,1101.244 1996.32,1110.448 Q2000.299,1119.652 2007.331,1126.684 Q2014.362,1133.715 2023.59,1137.694 Q2032.819,1141.674 2043.268,1141.674 z" fill="#FF3B30" id="Shape"/>
      <path d="M2051.022,1110.502 L2051.022,1122.54 L2035.518,1122.54 L2035.518,1110.502" fill-opacity="0" stroke="#FFFFFF" stroke-width="5" stroke-linejoin="round" id="Shape"/>
      <g id="Shape">
        <path d="M2043.27,1068.109 C2042.398,1068.109 2041.692,1067.402 2041.692,1066.53 C2041.692,1065.658 2042.398,1064.951 2043.27,1064.951 C2044.142,1064.951 2044.849,1065.658 2044.849,1066.53 C2044.849,1067.402 2044.142,1068.109 2043.27,1068.109 z" fill="#FFFFFF"/>
        <path d="M2043.27,1068.109 C2042.398,1068.109 2041.692,1067.402 2041.692,1066.53 C2041.692,1065.658 2042.398,1064.951 2043.27,1064.951 C2044.142,1064.951 2044.849,1065.658 2044.849,1066.53 C2044.849,1067.402 2044.142,1068.109 2043.27,1068.109 z" fill-opacity="0" stroke="#FFFFFF" stroke-width="5"/>
      </g>
      <path d="M2043.27,1093.032 C2039.783,1093.032 2036.955,1090.204 2036.955,1086.717 C2036.955,1083.229 2039.783,1080.401 2043.27,1080.401 C2046.758,1080.401 2049.586,1083.229 2049.586,1086.717 C2049.586,1090.204 2046.758,1093.032 2043.27,1093.032 z" fill-opacity="0" stroke="#FFFFFF" stroke-width="5" id="Shape"/>
      <path d="M2034.69,1059.001 L2051.85,1059.001 C2054.242,1059.001 2056.181,1060.885 2056.181,1063.211 L2056.181,1102.42 C2056.181,1104.745 2054.242,1106.63 2051.85,1106.63 L2034.69,1106.63 C2032.299,1106.63 2030.36,1104.745 2030.36,1102.42 L2030.36,1063.211 C2030.36,1060.885 2032.299,1059.001 2034.69,1059.001 z" fill-opacity="0" stroke="#FFFFFF" stroke-width="5" id="Shape"/>
    </g>
    <g id="Regular-M">
      <path d="M1452.329,1041.002 C1458.128,1041.205 1463.684,1042.696 1469.034,1044.848 Q1478.068,1048.754 1484.952,1055.639 Q1491.837,1062.523 1495.743,1071.532 Q1499.65,1080.541 1499.65,1090.746 Q1499.65,1100.951 1495.743,1109.96 Q1491.837,1118.969 1484.952,1125.854 Q1478.068,1132.738 1469.059,1136.645 Q1460.05,1140.551 1449.845,1140.551 Q1439.64,1140.551 1430.631,1136.645 Q1421.622,1132.738 1414.737,1125.854 Q1407.853,1118.969 1403.947,1109.96 Q1400.04,1100.951 1400.04,1090.746 Q1400.04,1080.541 1403.947,1071.532 Q1407.853,1062.523 1414.713,1055.639 Q1421.573,1048.754 1430.582,1044.848 Q1439.591,1040.941 1449.796,1040.941 L1452.329,1041.002 z M1444.088,1109.602 L1440.088,1109.602 L1440.088,1122.612 C1440.088,1123.677 1440.983,1124.54 1442.088,1124.54 L1457.592,1124.54 C1458.697,1124.54 1459.592,1123.677 1459.592,1122.612 L1459.592,1109.602 L1455.592,1109.602 L1455.592,1120.684 L1444.088,1120.684 L1444.088,1109.602 z M1458.42,1057 L1441.26,1057 C1437.776,1057 1434.929,1059.768 1434.929,1063.211 L1434.929,1102.42 C1434.929,1105.863 1437.776,1108.63 1441.26,1108.63 L1458.42,1108.63 C1461.904,1108.63 1464.751,1105.863 1464.75,1102.42 L1464.75,1063.211 C1464.751,1059.768 1461.904,1057 1458.42,1057 z M1458.42,1061 C1459.72,1061 1460.751,1062.003 1460.75,1063.211 L1460.75,1102.42 C1460.751,1103.628 1459.72,1104.63 1458.42,1104.63 L1441.26,1104.63 C1439.96,1104.63 1438.929,1103.628 1438.929,1102.42 L1438.929,1063.211 C1438.929,1062.003 1439.96,1061 1441.26,1061 L1458.42,1061 z M1449.84,1078.401 C1445.248,1078.401 1441.525,1082.124 1441.525,1086.717 C1441.525,1091.309 1445.248,1095.032 1449.84,1095.032 C1454.432,1095.032 1458.155,1091.309 1458.155,1086.717 C1458.155,1082.124 1454.432,1078.401 1449.84,1078.401 z M1449.84,1082.401 C1452.223,1082.401 1454.155,1084.333 1454.155,1086.717 C1454.155,1089.1 1452.223,1091.032 1449.84,1091.032 C1447.457,1091.032 1445.525,1089.1 1445.525,1086.717 C1445.525,1084.333 1447.457,1082.401 1449.84,1082.401 z M1449.84,1065.509 C1448.183,1065.51 1446.84,1066.853 1446.84,1068.51 C1446.84,1070.166 1448.183,1071.51 1449.84,1071.51 C1451.497,1071.51 1452.84,1070.166 1452.84,1068.51 C1452.84,1066.853 1451.497,1065.51 1449.84,1065.51 z" fill="#FF3B30"/>
    </g>
    <g id="Semibold-S">
      <path d="M2043.27,700.98 Q2051.571,700.98 2058.847,697.855 Q2066.122,694.73 2071.664,689.14 Q2077.206,683.549 2080.355,676.273 Q2083.505,668.998 2083.505,660.746 Q2083.505,652.494 2080.355,645.219 Q2077.206,637.943 2071.64,632.377 Q2066.073,626.81 2058.798,623.661 Q2051.522,620.512 2043.222,620.512 Q2034.97,620.512 2027.694,623.661 Q2020.419,626.81 2014.877,632.377 Q2009.335,637.943 2006.185,645.219 Q2003.036,652.494 2003.036,660.746 Q2003.036,668.998 2006.185,676.273 Q2009.335,683.549 2014.901,689.14 Q2020.468,694.73 2027.743,697.855 Q2035.018,700.98 2043.27,700.98 z" fill="#FF3B30"/>
      <path d="M2049.666,676.565 L2049.666,686.958 L2036.874,686.958 L2036.874,676.565" fill-opacity="0" stroke="#FFFFFF" stroke-width="4" stroke-linejoin="round" id="Shape"/>
      <g id="Shape">
        <path d="M2043.27,642.049 C2042.551,642.049 2041.968,641.466 2041.968,640.746 C2041.968,640.027 2042.551,639.444 2043.27,639.444 C2043.99,639.444 2044.573,640.027 2044.573,640.746 C2044.573,641.466 2043.99,642.049 2043.27,642.049 z" fill="#FFFFFF"/>
        <path d="M2043.27,642.049 C2042.551,642.049 2041.968,641.466 2041.968,640.746 C2041.968,640.027 2042.551,639.444 2043.27,639.444 C2043.99,639.444 2044.573,640.027 2044.573,640.746 C2044.573,641.466 2043.99,642.049 2043.27,642.049 z" fill-opacity="0" stroke="#FFFFFF" stroke-width="4"/>
      </g>
      <path d="M2043.27,662.612 C2040.393,662.612 2038.06,660.279 2038.06,657.401 C2038.06,654.524 2040.393,652.191 2043.27,652.191 C2046.148,652.191 2048.481,654.524 2048.481,657.401 C2048.481,660.279 2046.148,662.612 2043.27,662.612 z" fill-opacity="0" stroke="#FFFFFF" stroke-width="4" id="Shape"/>
      <path d="M2036.191,634.534 L2050.349,634.534 C2052.323,634.534 2053.923,636.089 2053.923,638.008 L2053.923,670.358 C2053.923,672.276 2052.323,673.831 2050.349,673.831 L2036.191,673.831 C2034.218,673.831 2032.618,672.276 2032.618,670.358 L2032.618,638.008 C2032.618,636.089 2034.218,634.534 2036.191,634.534 z" fill-opacity="0" stroke="#FFFFFF" stroke-width="4" id="Shape"/>
    </g>
    <g id="Regular-S">
      <path d="M1449.82,700.15 Q1457.926,700.15 1465.055,697.074 Q1472.183,693.998 1477.628,688.529 Q1483.072,683.061 1486.173,675.932 Q1489.273,668.803 1489.273,660.746 Q1489.273,652.69 1486.173,645.561 Q1483.072,638.432 1477.603,632.963 Q1472.135,627.494 1465.006,624.418 Q1457.877,621.342 1449.771,621.342 Q1441.715,621.342 1434.586,624.418 Q1427.457,627.494 1422.037,632.963 Q1416.617,638.432 1413.516,645.561 Q1410.416,652.69 1410.416,660.746 Q1410.416,668.803 1413.516,675.932 Q1416.617,683.061 1422.061,688.529 Q1427.506,693.998 1434.635,697.074 Q1441.764,700.15 1449.82,700.15 z" fill="#FF3B30"/>
      <path d="M1441.985,634.558 L1456.144,634.558 C1458.117,634.558 1459.717,636.114 1459.717,638.032 L1459.717,670.382 C1459.717,672.301 1458.117,673.856 1456.144,673.856 L1441.985,673.856 C1440.012,673.856 1438.412,672.301 1438.412,670.382 L1438.412,638.032 C1438.412,636.114 1440.012,634.558 1441.985,634.558 z M1442.669,675.847 L1442.669,686.983 L1455.461,686.983 L1455.461,675.847 M1449.065,642.073 C1449.784,642.073 1450.367,641.49 1450.367,640.771 C1450.367,640.051 1449.784,639.468 1449.065,639.468 C1448.345,639.468 1447.762,640.051 1447.762,640.771 C1447.762,641.49 1448.345,642.073 1449.065,642.073 z M1449.065,662.636 C1451.942,662.636 1454.275,660.303 1454.275,657.426 C1454.275,654.548 1451.942,652.215 1449.065,652.215 C1446.187,652.215 1443.854,654.548 1443.854,657.426 C1443.854,660.303 1446.187,662.636 1449.065,662.636 z" fill-opacity="0" stroke="#FFFFFF" stroke-width="3" stroke-linejoin="round" id="Shape"/>
    </g>
  </g>
</svg>
